<svg width="388" height="507" viewBox="0 0 388 507" fill="none" xmlns="http://www.w3.org/2000/svg">
<path d="M137.039 277.1C136.219 277.1 135.576 276.923 135.109 276.57C134.649 276.217 134.419 275.727 134.419 275.1C134.419 274.673 134.529 274.31 134.749 274.01C134.976 273.71 135.269 273.5 135.629 273.38C135.309 273.24 135.056 273.027 134.869 272.74C134.689 272.453 134.599 272.123 134.599 271.75C134.599 271.157 134.819 270.693 135.259 270.36C135.699 270.02 136.292 269.85 137.039 269.85C137.792 269.85 138.389 270.02 138.829 270.36C139.269 270.693 139.489 271.157 139.489 271.75C139.489 272.123 139.396 272.457 139.209 272.75C139.029 273.037 138.782 273.247 138.469 273.38C138.829 273.5 139.116 273.713 139.329 274.02C139.549 274.32 139.659 274.68 139.659 275.1C139.659 275.727 139.426 276.217 138.959 276.57C138.499 276.923 137.859 277.1 137.039 277.1ZM137.039 272.93C137.432 272.93 137.739 272.837 137.959 272.65C138.186 272.463 138.299 272.207 138.299 271.88C138.299 271.56 138.186 271.31 137.959 271.13C137.739 270.943 137.432 270.85 137.039 270.85C136.646 270.85 136.339 270.943 136.119 271.13C135.899 271.31 135.789 271.56 135.789 271.88C135.789 272.207 135.899 272.463 136.119 272.65C136.339 272.837 136.646 272.93 137.039 272.93ZM137.039 276.1C137.992 276.1 138.469 275.737 138.469 275.01C138.469 274.29 137.992 273.93 137.039 273.93C136.572 273.93 136.216 274.02 135.969 274.2C135.729 274.38 135.609 274.65 135.609 275.01C135.609 275.37 135.729 275.643 135.969 275.83C136.216 276.01 136.572 276.1 137.039 276.1ZM143.295 277.1C142.422 277.1 141.745 276.793 141.265 276.18C140.792 275.567 140.555 274.707 140.555 273.6C140.555 272.407 140.822 271.483 141.355 270.83C141.895 270.177 142.638 269.85 143.585 269.85C143.958 269.85 144.328 269.92 144.695 270.06C145.062 270.193 145.375 270.387 145.635 270.64L145.215 271.6C144.968 271.373 144.705 271.207 144.425 271.1C144.145 270.987 143.858 270.93 143.565 270.93C142.985 270.93 142.542 271.133 142.235 271.54C141.928 271.947 141.775 272.553 141.775 273.36V273.65C141.915 273.283 142.142 272.997 142.455 272.79C142.768 272.583 143.128 272.48 143.535 272.48C143.942 272.48 144.302 272.577 144.615 272.77C144.928 272.963 145.175 273.23 145.355 273.57C145.535 273.91 145.625 274.3 145.625 274.74C145.625 275.193 145.525 275.6 145.325 275.96C145.132 276.313 144.858 276.593 144.505 276.8C144.158 277 143.755 277.1 143.295 277.1ZM143.225 276.08C143.585 276.08 143.875 275.963 144.095 275.73C144.322 275.49 144.435 275.177 144.435 274.79C144.435 274.403 144.322 274.09 144.095 273.85C143.875 273.61 143.585 273.49 143.225 273.49C142.865 273.49 142.572 273.61 142.345 273.85C142.125 274.09 142.015 274.403 142.015 274.79C142.015 275.177 142.125 275.49 142.345 275.73C142.572 275.963 142.865 276.08 143.225 276.08ZM147.181 278.33L146.671 277.93C146.838 277.763 146.961 277.603 147.041 277.45C147.128 277.303 147.188 277.153 147.221 277H146.571V275.61H147.971V276.53C147.971 276.87 147.911 277.18 147.791 277.46C147.678 277.747 147.475 278.037 147.181 278.33ZM151.572 277.1C151.112 277.1 150.665 277.03 150.232 276.89C149.798 276.743 149.445 276.547 149.172 276.3L149.592 275.32C150.198 275.787 150.852 276.02 151.552 276.02C151.972 276.02 152.298 275.913 152.532 275.7C152.772 275.48 152.892 275.187 152.892 274.82C152.892 274.447 152.778 274.147 152.552 273.92C152.325 273.687 152.015 273.57 151.622 273.57C151.062 273.57 150.598 273.793 150.232 274.24H149.372V269.95H153.702V271.01H150.622V272.92C150.975 272.653 151.408 272.52 151.922 272.52C152.368 272.52 152.755 272.617 153.082 272.81C153.415 272.997 153.672 273.26 153.852 273.6C154.038 273.933 154.132 274.323 154.132 274.77C154.132 275.23 154.028 275.637 153.822 275.99C153.615 276.337 153.318 276.61 152.932 276.81C152.552 277.003 152.098 277.1 151.572 277.1ZM157.588 277.28L156.768 276.8L160.888 269.67L161.698 270.15L157.588 277.28ZM156.728 274.16C156.168 274.16 155.731 273.967 155.418 273.58C155.104 273.193 154.948 272.667 154.948 272C154.948 271.333 155.104 270.81 155.418 270.43C155.731 270.043 156.168 269.85 156.728 269.85C157.288 269.85 157.724 270.043 158.038 270.43C158.351 270.81 158.508 271.333 158.508 272C158.508 272.667 158.351 273.193 158.038 273.58C157.724 273.967 157.288 274.16 156.728 274.16ZM156.728 273.32C156.968 273.32 157.154 273.213 157.288 273C157.421 272.78 157.488 272.447 157.488 272C157.488 271.553 157.421 271.223 157.288 271.01C157.154 270.797 156.968 270.69 156.728 270.69C156.488 270.69 156.301 270.797 156.168 271.01C156.034 271.217 155.968 271.547 155.968 272C155.968 272.453 156.034 272.787 156.168 273C156.301 273.213 156.488 273.32 156.728 273.32ZM161.748 277.1C161.188 277.1 160.751 276.907 160.438 276.52C160.124 276.133 159.968 275.607 159.968 274.94C159.968 274.273 160.124 273.75 160.438 273.37C160.751 272.983 161.188 272.79 161.748 272.79C162.308 272.79 162.744 272.983 163.058 273.37C163.371 273.75 163.528 274.273 163.528 274.94C163.528 275.607 163.371 276.133 163.058 276.52C162.744 276.907 162.308 277.1 161.748 277.1ZM161.748 276.26C161.988 276.26 162.174 276.153 162.308 275.94C162.441 275.72 162.508 275.387 162.508 274.94C162.508 274.493 162.441 274.163 162.308 273.95C162.174 273.737 161.988 273.63 161.748 273.63C161.508 273.63 161.321 273.737 161.188 273.95C161.054 274.157 160.988 274.487 160.988 274.94C160.988 275.393 161.054 275.727 161.188 275.94C161.321 276.153 161.508 276.26 161.748 276.26Z" fill="#C3676E"/>
<path d="M138.137 387L141.317 381.02H137.827V379.95H142.737V380.91L139.547 387H138.137ZM146.533 387.1C145.66 387.1 144.983 386.793 144.503 386.18C144.03 385.567 143.793 384.707 143.793 383.6C143.793 382.407 144.06 381.483 144.593 380.83C145.133 380.177 145.877 379.85 146.823 379.85C147.197 379.85 147.567 379.92 147.933 380.06C148.3 380.193 148.613 380.387 148.873 380.64L148.453 381.6C148.207 381.373 147.943 381.207 147.663 381.1C147.383 380.987 147.097 380.93 146.803 380.93C146.223 380.93 145.78 381.133 145.473 381.54C145.167 381.947 145.013 382.553 145.013 383.36V383.65C145.153 383.283 145.38 382.997 145.693 382.79C146.007 382.583 146.367 382.48 146.773 382.48C147.18 382.48 147.54 382.577 147.853 382.77C148.167 382.963 148.413 383.23 148.593 383.57C148.773 383.91 148.863 384.3 148.863 384.74C148.863 385.193 148.763 385.6 148.563 385.96C148.37 386.313 148.097 386.593 147.743 386.8C147.397 387 146.993 387.1 146.533 387.1ZM146.463 386.08C146.823 386.08 147.113 385.963 147.333 385.73C147.56 385.49 147.673 385.177 147.673 384.79C147.673 384.403 147.56 384.09 147.333 383.85C147.113 383.61 146.823 383.49 146.463 383.49C146.103 383.49 145.81 383.61 145.583 383.85C145.363 384.09 145.253 384.403 145.253 384.79C145.253 385.177 145.363 385.49 145.583 385.73C145.81 385.963 146.103 386.08 146.463 386.08ZM152.35 387.28L151.53 386.8L155.65 379.67L156.46 380.15L152.35 387.28ZM151.49 384.16C150.93 384.16 150.493 383.967 150.18 383.58C149.866 383.193 149.71 382.667 149.71 382C149.71 381.333 149.866 380.81 150.18 380.43C150.493 380.043 150.93 379.85 151.49 379.85C152.05 379.85 152.486 380.043 152.8 380.43C153.113 380.81 153.27 381.333 153.27 382C153.27 382.667 153.113 383.193 152.8 383.58C152.486 383.967 152.05 384.16 151.49 384.16ZM151.49 383.32C151.73 383.32 151.916 383.213 152.05 383C152.183 382.78 152.25 382.447 152.25 382C152.25 381.553 152.183 381.223 152.05 381.01C151.916 380.797 151.73 380.69 151.49 380.69C151.25 380.69 151.063 380.797 150.93 381.01C150.796 381.217 150.73 381.547 150.73 382C150.73 382.453 150.796 382.787 150.93 383C151.063 383.213 151.25 383.32 151.49 383.32ZM156.51 387.1C155.95 387.1 155.513 386.907 155.2 386.52C154.886 386.133 154.73 385.607 154.73 384.94C154.73 384.273 154.886 383.75 155.2 383.37C155.513 382.983 155.95 382.79 156.51 382.79C157.07 382.79 157.506 382.983 157.82 383.37C158.133 383.75 158.29 384.273 158.29 384.94C158.29 385.607 158.133 386.133 157.82 386.52C157.506 386.907 157.07 387.1 156.51 387.1ZM156.51 386.26C156.75 386.26 156.936 386.153 157.07 385.94C157.203 385.72 157.27 385.387 157.27 384.94C157.27 384.493 157.203 384.163 157.07 383.95C156.936 383.737 156.75 383.63 156.51 383.63C156.27 383.63 156.083 383.737 155.95 383.95C155.816 384.157 155.75 384.487 155.75 384.94C155.75 385.393 155.816 385.727 155.95 385.94C156.083 386.153 156.27 386.26 156.51 386.26Z" fill="#C3676E"/>
<path d="M49.0809 257.09C48.6489 257.09 48.2349 257.027 47.8389 256.901C47.4489 256.769 47.1249 256.592 46.8669 256.37L47.2449 255.488C47.7849 255.908 48.3849 256.118 49.0449 256.118C49.8549 256.118 50.2599 255.8 50.2599 255.164C50.2599 254.864 50.1579 254.642 49.9539 254.498C49.7559 254.348 49.4649 254.273 49.0809 254.273H48.0639V253.319H48.9729C49.3089 253.319 49.5759 253.238 49.7739 253.076C49.9719 252.908 50.0709 252.677 50.0709 252.383C50.0709 252.107 49.9779 251.897 49.7919 251.753C49.6119 251.609 49.3479 251.537 48.9999 251.537C48.3759 251.537 47.8269 251.753 47.3529 252.185L46.9749 251.321C47.2269 251.081 47.5419 250.895 47.9199 250.763C48.2979 250.631 48.6909 250.565 49.0989 250.565C49.7589 250.565 50.2719 250.715 50.6379 251.015C51.0039 251.309 51.1869 251.72 51.1869 252.248C51.1869 252.59 51.0999 252.89 50.9259 253.148C50.7519 253.406 50.5149 253.592 50.2149 253.706C50.5809 253.808 50.8659 253.997 51.0699 254.273C51.2739 254.543 51.3759 254.873 51.3759 255.263C51.3759 255.827 51.1719 256.274 50.7639 256.604C50.3559 256.928 49.7949 257.09 49.0809 257.09ZM52.9384 258.197L52.4794 257.837C52.6294 257.687 52.7404 257.543 52.8124 257.405C52.8904 257.273 52.9444 257.138 52.9744 257H52.3894V255.749H53.6494V256.577C53.6494 256.883 53.5954 257.162 53.4874 257.414C53.3854 257.672 53.2024 257.933 52.9384 258.197ZM56.8898 257.09C56.4758 257.09 56.0738 257.027 55.6838 256.901C55.2938 256.769 54.9758 256.592 54.7298 256.37L55.1078 255.488C55.6538 255.908 56.2418 256.118 56.8718 256.118C57.2498 256.118 57.5438 256.022 57.7538 255.83C57.9698 255.632 58.0778 255.368 58.0778 255.038C58.0778 254.702 57.9758 254.432 57.7718 254.228C57.5678 254.018 57.2888 253.913 56.9348 253.913C56.4308 253.913 56.0138 254.114 55.6838 254.516H54.9098V250.655H58.8068V251.609H56.0348V253.328C56.3528 253.088 56.7428 252.968 57.2048 252.968C57.6068 252.968 57.9548 253.055 58.2488 253.229C58.5488 253.397 58.7798 253.634 58.9418 253.94C59.1098 254.24 59.1938 254.591 59.1938 254.993C59.1938 255.407 59.1008 255.773 58.9148 256.091C58.7288 256.403 58.4618 256.649 58.1138 256.829C57.7718 257.003 57.3638 257.09 56.8898 257.09ZM62.3043 257.252L61.5663 256.82L65.2743 250.403L66.0033 250.835L62.3043 257.252ZM61.5303 254.444C61.0263 254.444 60.6333 254.27 60.3513 253.922C60.0693 253.574 59.9283 253.1 59.9283 252.5C59.9283 251.9 60.0693 251.429 60.3513 251.087C60.6333 250.739 61.0263 250.565 61.5303 250.565C62.0343 250.565 62.4273 250.739 62.7093 251.087C62.9913 251.429 63.1323 251.9 63.1323 252.5C63.1323 253.1 62.9913 253.574 62.7093 253.922C62.4273 254.27 62.0343 254.444 61.5303 254.444ZM61.5303 253.688C61.7463 253.688 61.9143 253.592 62.0343 253.4C62.1543 253.202 62.2143 252.902 62.2143 252.5C62.2143 252.098 62.1543 251.801 62.0343 251.609C61.9143 251.417 61.7463 251.321 61.5303 251.321C61.3143 251.321 61.1463 251.417 61.0263 251.609C60.9063 251.795 60.8463 252.092 60.8463 252.5C60.8463 252.908 60.9063 253.208 61.0263 253.4C61.1463 253.592 61.3143 253.688 61.5303 253.688ZM66.0483 257.09C65.5443 257.09 65.1513 256.916 64.8693 256.568C64.5873 256.22 64.4463 255.746 64.4463 255.146C64.4463 254.546 64.5873 254.075 64.8693 253.733C65.1513 253.385 65.5443 253.211 66.0483 253.211C66.5523 253.211 66.9453 253.385 67.2273 253.733C67.5093 254.075 67.6503 254.546 67.6503 255.146C67.6503 255.746 67.5093 256.22 67.2273 256.568C66.9453 256.916 66.5523 257.09 66.0483 257.09ZM66.0483 256.334C66.2643 256.334 66.4323 256.238 66.5523 256.046C66.6723 255.848 66.7323 255.548 66.7323 255.146C66.7323 254.744 66.6723 254.447 66.5523 254.255C66.4323 254.063 66.2643 253.967 66.0483 253.967C65.8323 253.967 65.6643 254.063 65.5443 254.255C65.4243 254.441 65.3643 254.738 65.3643 255.146C65.3643 255.554 65.4243 255.854 65.5443 256.046C65.6643 256.238 65.8323 256.334 66.0483 256.334Z" fill="#00495D"/>
<path d="M237.511 257.09C236.773 257.09 236.194 256.931 235.774 256.613C235.36 256.295 235.153 255.854 235.153 255.29C235.153 254.906 235.252 254.579 235.45 254.309C235.654 254.039 235.918 253.85 236.242 253.742C235.954 253.616 235.726 253.424 235.558 253.166C235.396 252.908 235.315 252.611 235.315 252.275C235.315 251.741 235.513 251.324 235.909 251.024C236.305 250.718 236.839 250.565 237.511 250.565C238.189 250.565 238.726 250.718 239.122 251.024C239.518 251.324 239.716 251.741 239.716 252.275C239.716 252.611 239.632 252.911 239.464 253.175C239.302 253.433 239.08 253.622 238.798 253.742C239.122 253.85 239.38 254.042 239.572 254.318C239.77 254.588 239.869 254.912 239.869 255.29C239.869 255.854 239.659 256.295 239.239 256.613C238.825 256.931 238.249 257.09 237.511 257.09ZM237.511 253.337C237.865 253.337 238.141 253.253 238.339 253.085C238.543 252.917 238.645 252.686 238.645 252.392C238.645 252.104 238.543 251.879 238.339 251.717C238.141 251.549 237.865 251.465 237.511 251.465C237.157 251.465 236.881 251.549 236.683 251.717C236.485 251.879 236.386 252.104 236.386 252.392C236.386 252.686 236.485 252.917 236.683 253.085C236.881 253.253 237.157 253.337 237.511 253.337ZM237.511 256.19C238.369 256.19 238.798 255.863 238.798 255.209C238.798 254.561 238.369 254.237 237.511 254.237C237.091 254.237 236.77 254.318 236.548 254.48C236.332 254.642 236.224 254.885 236.224 255.209C236.224 255.533 236.332 255.779 236.548 255.947C236.77 256.109 237.091 256.19 237.511 256.19ZM241.242 258.197L240.783 257.837C240.933 257.687 241.044 257.543 241.116 257.405C241.194 257.273 241.248 257.138 241.278 257H240.693V255.749H241.953V256.577C241.953 256.883 241.899 257.162 241.791 257.414C241.689 257.672 241.506 257.933 241.242 258.197ZM243.214 257L246.076 251.618H242.935V250.655H247.354V251.519L244.483 257H243.214ZM250.608 257.252L249.87 256.82L253.578 250.403L254.307 250.835L250.608 257.252ZM249.834 254.444C249.33 254.444 248.937 254.27 248.655 253.922C248.373 253.574 248.232 253.1 248.232 252.5C248.232 251.9 248.373 251.429 248.655 251.087C248.937 250.739 249.33 250.565 249.834 250.565C250.338 250.565 250.731 250.739 251.013 251.087C251.295 251.429 251.436 251.9 251.436 252.5C251.436 253.1 251.295 253.574 251.013 253.922C250.731 254.27 250.338 254.444 249.834 254.444ZM249.834 253.688C250.05 253.688 250.218 253.592 250.338 253.4C250.458 253.202 250.518 252.902 250.518 252.5C250.518 252.098 250.458 251.801 250.338 251.609C250.218 251.417 250.05 251.321 249.834 251.321C249.618 251.321 249.45 251.417 249.33 251.609C249.21 251.795 249.15 252.092 249.15 252.5C249.15 252.908 249.21 253.208 249.33 253.4C249.45 253.592 249.618 253.688 249.834 253.688ZM254.352 257.09C253.848 257.09 253.455 256.916 253.173 256.568C252.891 256.22 252.75 255.746 252.75 255.146C252.75 254.546 252.891 254.075 253.173 253.733C253.455 253.385 253.848 253.211 254.352 253.211C254.856 253.211 255.249 253.385 255.531 253.733C255.813 254.075 255.954 254.546 255.954 255.146C255.954 255.746 255.813 256.22 255.531 256.568C255.249 256.916 254.856 257.09 254.352 257.09ZM254.352 256.334C254.568 256.334 254.736 256.238 254.856 256.046C254.976 255.848 255.036 255.548 255.036 255.146C255.036 254.744 254.976 254.447 254.856 254.255C254.736 254.063 254.568 253.967 254.352 253.967C254.136 253.967 253.968 254.063 253.848 254.255C253.728 254.441 253.668 254.738 253.668 255.146C253.668 255.554 253.728 255.854 253.848 256.046C253.968 256.238 254.136 256.334 254.352 256.334Z" fill="#00495D"/>
<path d="M331.881 257.09C331.131 257.09 330.558 256.808 330.162 256.244C329.766 255.674 329.568 254.864 329.568 253.814C329.568 252.752 329.766 251.945 330.162 251.393C330.558 250.841 331.131 250.565 331.881 250.565C332.637 250.565 333.21 250.841 333.6 251.393C333.996 251.945 334.194 252.749 334.194 253.805C334.194 254.861 333.996 255.674 333.6 256.244C333.204 256.808 332.631 257.09 331.881 257.09ZM331.881 256.145C332.289 256.145 332.589 255.959 332.781 255.587C332.979 255.209 333.078 254.615 333.078 253.805C333.078 253.001 332.979 252.419 332.781 252.059C332.589 251.693 332.289 251.51 331.881 251.51C331.479 251.51 331.179 251.693 330.981 252.059C330.783 252.419 330.684 253.001 330.684 253.805C330.684 254.615 330.783 255.209 330.981 255.587C331.179 255.959 331.479 256.145 331.881 256.145ZM335.612 258.197L335.153 257.837C335.303 257.687 335.414 257.543 335.486 257.405C335.564 257.273 335.618 257.138 335.648 257H335.063V255.749H336.323V256.577C336.323 256.883 336.269 257.162 336.161 257.414C336.059 257.672 335.876 257.933 335.612 258.197ZM339.024 257.09C338.688 257.09 338.355 257.027 338.025 256.901C337.695 256.769 337.41 256.592 337.17 256.37L337.557 255.506C337.773 255.71 338.007 255.863 338.259 255.965C338.517 256.067 338.775 256.118 339.033 256.118C339.561 256.118 339.963 255.935 340.239 255.569C340.515 255.203 340.653 254.657 340.653 253.931V253.661C340.533 253.991 340.332 254.252 340.05 254.444C339.768 254.63 339.438 254.723 339.06 254.723C338.7 254.723 338.379 254.636 338.097 254.462C337.815 254.288 337.59 254.048 337.422 253.742C337.26 253.43 337.179 253.079 337.179 252.689C337.179 252.275 337.269 251.909 337.449 251.591C337.629 251.273 337.875 251.024 338.187 250.844C338.505 250.658 338.868 250.565 339.276 250.565C340.068 250.565 340.677 250.841 341.103 251.393C341.529 251.939 341.742 252.713 341.742 253.715C341.742 254.783 341.502 255.614 341.022 256.208C340.542 256.796 339.876 257.09 339.024 257.09ZM339.348 253.805C339.672 253.805 339.933 253.7 340.131 253.49C340.335 253.274 340.437 252.992 340.437 252.644C340.437 252.296 340.335 252.014 340.131 251.798C339.933 251.582 339.672 251.474 339.348 251.474C339.024 251.474 338.76 251.582 338.556 251.798C338.358 252.014 338.259 252.296 338.259 252.644C338.259 252.992 338.358 253.274 338.556 253.49C338.76 253.7 339.024 253.805 339.348 253.805ZM344.978 257.252L344.24 256.82L347.948 250.403L348.677 250.835L344.978 257.252ZM344.204 254.444C343.7 254.444 343.307 254.27 343.025 253.922C342.743 253.574 342.602 253.1 342.602 252.5C342.602 251.9 342.743 251.429 343.025 251.087C343.307 250.739 343.7 250.565 344.204 250.565C344.708 250.565 345.101 250.739 345.383 251.087C345.665 251.429 345.806 251.9 345.806 252.5C345.806 253.1 345.665 253.574 345.383 253.922C345.101 254.27 344.708 254.444 344.204 254.444ZM344.204 253.688C344.42 253.688 344.588 253.592 344.708 253.4C344.828 253.202 344.888 252.902 344.888 252.5C344.888 252.098 344.828 251.801 344.708 251.609C344.588 251.417 344.42 251.321 344.204 251.321C343.988 251.321 343.82 251.417 343.7 251.609C343.58 251.795 343.52 252.092 343.52 252.5C343.52 252.908 343.58 253.208 343.7 253.4C343.82 253.592 343.988 253.688 344.204 253.688ZM348.722 257.09C348.218 257.09 347.825 256.916 347.543 256.568C347.261 256.22 347.12 255.746 347.12 255.146C347.12 254.546 347.261 254.075 347.543 253.733C347.825 253.385 348.218 253.211 348.722 253.211C349.226 253.211 349.619 253.385 349.901 253.733C350.183 254.075 350.324 254.546 350.324 255.146C350.324 255.746 350.183 256.22 349.901 256.568C349.619 256.916 349.226 257.09 348.722 257.09ZM348.722 256.334C348.938 256.334 349.106 256.238 349.226 256.046C349.346 255.848 349.406 255.548 349.406 255.146C349.406 254.744 349.346 254.447 349.226 254.255C349.106 254.063 348.938 253.967 348.722 253.967C348.506 253.967 348.338 254.063 348.218 254.255C348.098 254.441 348.038 254.738 348.038 255.146C348.038 255.554 348.098 255.854 348.218 256.046C348.338 256.238 348.506 256.334 348.722 256.334Z" fill="#00495D"/>
<path d="M151.071 247.799C166.524 247.799 179.05 235.281 179.05 219.84C179.05 204.399 166.524 191.882 151.071 191.882C135.619 191.882 123.093 204.399 123.093 219.84C123.093 235.281 135.619 247.799 151.071 247.799Z" fill="#00495D"/>
<path d="M159.521 60.0039L159.16 57.3183L157.956 48.3677H222.286L215.016 102.462H165.226L159.947 63.1872" fill="#A0D08D"/>
<path d="M163.448 63.1414L163.087 60.4558L161.883 51.5103H226.213L218.943 105.6H169.153L163.875 66.3247" stroke="#034454" stroke-width="1.42129" stroke-miterlimit="10"/>
<path d="M215.011 51.3681L226.213 20.2467" stroke="#034454" stroke-width="1.42129" stroke-miterlimit="10" stroke-linecap="round"/>
<path d="M198.382 28.2072C200.934 28.2072 203.382 29.2203 205.186 31.0236C206.991 32.8269 208.005 35.2726 208.005 37.8229C208.005 40.3731 206.991 42.8189 205.186 44.6222C203.382 46.4255 200.934 47.4385 198.382 47.4385" stroke="#034454" stroke-width="1.42129" stroke-miterlimit="10" stroke-linecap="round"/>
<path d="M194.048 68.8428C194.048 68.8428 207.588 68.1574 207.314 79.7023C207.039 91.2472 194.048 96.1464 194.048 96.1464C194.048 96.1464 181.062 91.2472 180.783 79.7023C180.503 68.1574 194.048 68.8428 194.048 68.8428Z" fill="white" stroke="#034454" stroke-width="1.42129" stroke-miterlimit="10"/>
<path d="M186.041 60.6944C186.041 60.6944 188.5 60.3441 191.183 63.0196C193.865 65.6952 193.906 68.5382 193.906 68.5382C193.906 68.5382 191.051 68.4976 188.373 65.817C185.696 63.1364 186.041 60.6944 186.041 60.6944Z" stroke="#034454" stroke-width="1.42129" stroke-miterlimit="10"/>
<path d="M203.036 60.6944C203.036 60.6944 200.577 60.3441 197.899 63.0196C195.222 65.6952 195.176 68.5382 195.176 68.5382C195.176 68.5382 198.031 68.4976 200.709 65.817C203.386 63.1364 203.036 60.6944 203.036 60.6944Z" stroke="#034454" stroke-width="1.42129" stroke-miterlimit="10"/>
<path d="M186.173 77.1384V79.0575" stroke="#034454" stroke-width="1.42129" stroke-miterlimit="10" stroke-linecap="round"/>
<path d="M201.578 76.1789V78.098" stroke="#034454" stroke-width="1.42129" stroke-miterlimit="10" stroke-linecap="round"/>
<path d="M198.184 85.3123V87.2313" stroke="#034454" stroke-width="1.42129" stroke-miterlimit="10" stroke-linecap="round"/>
<path d="M194.048 80.8091V82.7282" stroke="#034454" stroke-width="1.42129" stroke-miterlimit="10" stroke-linecap="round"/>
<path d="M192.565 73.7421V75.6611" stroke="#034454" stroke-width="1.42129" stroke-miterlimit="10" stroke-linecap="round"/>
<path d="M190.111 86.3378V88.2569" stroke="#034454" stroke-width="1.42129" stroke-miterlimit="10" stroke-linecap="round"/>
<path d="M232.107 47.4335H155.99V51.5051H232.107V47.4335Z" fill="white" stroke="#034454" stroke-width="1.42129" stroke-miterlimit="10"/>
<path d="M328.191 222.648L328.054 221.653L327.612 218.342H351.42L348.727 238.361H330.3L328.349 223.825" stroke="#00495D" stroke-width="1.42129" stroke-miterlimit="10"/>
<path d="M347.274 218.292L351.42 206.772" stroke="#00495D" stroke-width="1.42129" stroke-miterlimit="10" stroke-linecap="round"/>
<path d="M341.121 211.199C342.065 211.199 342.969 211.574 343.636 212.24C344.303 212.907 344.678 213.811 344.678 214.753C344.678 215.696 344.303 216.6 343.636 217.266C342.969 217.932 342.065 218.307 341.121 218.307" stroke="#00495D" stroke-width="1.42129" stroke-miterlimit="10" stroke-linecap="round"/>
<path d="M353.599 218.337H325.427" stroke="#00495D" stroke-width="1.42129" stroke-miterlimit="10"/>
<path d="M240.114 125.862C256.046 125.862 268.962 112.955 268.962 97.0349C268.962 81.1143 256.046 68.2082 240.114 68.2082C224.182 68.2082 211.266 81.1143 211.266 97.0349C211.266 112.955 224.182 125.862 240.114 125.862Z" fill="#00495D"/>
<path d="M224.862 110V102.95H226.142V106.07H226.162L229.272 102.95H230.832L227.402 106.34L231.002 110H229.422L226.162 106.74H226.142V110H224.862ZM234.609 110.1C233.829 110.1 233.169 109.953 232.629 109.66C232.096 109.367 231.689 108.95 231.409 108.41C231.129 107.87 230.989 107.23 230.989 106.49C230.989 105.743 231.133 105.1 231.419 104.56C231.706 104.013 232.119 103.593 232.659 103.3C233.199 103 233.846 102.85 234.599 102.85C235.093 102.85 235.556 102.923 235.989 103.07C236.423 103.21 236.783 103.407 237.069 103.66L236.639 104.66C236.326 104.413 236.006 104.237 235.679 104.13C235.353 104.023 234.993 103.97 234.599 103.97C233.853 103.97 233.286 104.187 232.899 104.62C232.519 105.053 232.329 105.677 232.329 106.49C232.329 107.31 232.526 107.933 232.919 108.36C233.313 108.787 233.896 109 234.669 109C234.889 109 235.113 108.983 235.339 108.95C235.573 108.91 235.803 108.853 236.029 108.78V107.14H234.409V106.19H237.099V109.58C236.773 109.74 236.386 109.867 235.939 109.96C235.493 110.053 235.049 110.1 234.609 110.1ZM244.558 110.1C243.824 110.1 243.194 109.953 242.668 109.66C242.148 109.36 241.748 108.94 241.468 108.4C241.188 107.853 241.048 107.21 241.048 106.47C241.048 105.73 241.188 105.09 241.468 104.55C241.748 104.01 242.148 103.593 242.668 103.3C243.194 103 243.824 102.85 244.558 102.85C245.031 102.85 245.478 102.923 245.898 103.07C246.324 103.217 246.674 103.427 246.948 103.7L246.528 104.72C246.228 104.467 245.921 104.283 245.608 104.17C245.294 104.05 244.958 103.99 244.598 103.99C243.884 103.99 243.341 104.207 242.968 104.64C242.594 105.067 242.408 105.677 242.408 106.47C242.408 107.263 242.594 107.877 242.968 108.31C243.341 108.743 243.884 108.96 244.598 108.96C244.958 108.96 245.294 108.903 245.608 108.79C245.921 108.67 246.228 108.483 246.528 108.23L246.948 109.25C246.674 109.517 246.324 109.727 245.898 109.88C245.478 110.027 245.031 110.1 244.558 110.1ZM250.991 110.1C250.311 110.1 249.714 109.95 249.201 109.65C248.694 109.35 248.301 108.93 248.021 108.39C247.741 107.843 247.601 107.203 247.601 106.47C247.601 105.73 247.741 105.09 248.021 104.55C248.301 104.01 248.694 103.593 249.201 103.3C249.707 103 250.304 102.85 250.991 102.85C251.677 102.85 252.274 103 252.781 103.3C253.287 103.593 253.681 104.01 253.961 104.55C254.241 105.09 254.381 105.727 254.381 106.46C254.381 107.2 254.241 107.843 253.961 108.39C253.681 108.93 253.287 109.35 252.781 109.65C252.274 109.95 251.677 110.1 250.991 110.1ZM250.991 109C251.637 109 252.141 108.777 252.501 108.33C252.861 107.883 253.041 107.263 253.041 106.47C253.041 105.67 252.861 105.05 252.501 104.61C252.147 104.17 251.644 103.95 250.991 103.95C250.344 103.95 249.841 104.17 249.481 104.61C249.121 105.05 248.941 105.67 248.941 106.47C248.941 107.263 249.121 107.883 249.481 108.33C249.841 108.777 250.344 109 250.991 109ZM255.712 110V109.05L257.992 106.62C258.299 106.287 258.519 105.993 258.652 105.74C258.785 105.48 258.852 105.217 258.852 104.95C258.852 104.27 258.442 103.93 257.622 103.93C256.982 103.93 256.392 104.17 255.852 104.65L255.422 103.69C255.702 103.437 256.052 103.233 256.472 103.08C256.892 102.927 257.329 102.85 257.782 102.85C258.535 102.85 259.112 103.02 259.512 103.36C259.919 103.7 260.122 104.187 260.122 104.82C260.122 105.247 260.019 105.657 259.812 106.05C259.612 106.443 259.295 106.867 258.862 107.32L257.312 108.94H260.392V110H255.712Z" fill="white"/>
<path d="M242.192 127.385C258.124 127.385 271.04 114.478 271.04 98.5579C271.04 82.6374 258.124 69.7313 242.192 69.7313C226.26 69.7313 213.344 82.6374 213.344 98.5579C213.344 114.478 226.26 127.385 242.192 127.385Z" stroke="#034454" stroke-width="1.42129" stroke-miterlimit="10"/>
<path d="M231.38 94.0547H234.043V96.2479H225.985V94.0547H228.627V86.9471L226.523 88.1706L225.507 86.2109L229.429 83.9161H231.375L231.38 94.0547Z" fill="white"/>
<path d="M235.516 93.4454H238.356V96.2479H235.516V93.4454Z" fill="white"/>
<path d="M240.038 83.9009H248.949V85.9316L243.447 96.2479H240.536L246.023 86.0941H240.038V83.9009Z" fill="white"/>
<path d="M257.769 88.7595C258.354 89.082 258.835 89.5646 259.156 90.1506C259.498 90.7852 259.673 91.4962 259.664 92.2169C259.68 92.9974 259.47 93.7659 259.06 94.4304C258.658 95.0695 258.079 95.5777 257.393 95.8925C256.603 96.2472 255.744 96.4207 254.878 96.4002C254.086 96.3978 253.299 96.271 252.546 96.0245C251.859 95.8165 251.221 95.4711 250.672 95.0092L251.53 93.0647C252.507 93.8029 253.69 94.2182 254.914 94.2527C255.498 94.2886 256.075 94.1079 256.535 93.745C256.728 93.5583 256.877 93.3315 256.973 93.0806C257.069 92.8296 257.108 92.5608 257.088 92.293C257.099 92.0302 257.053 91.7682 256.955 91.5241C256.857 91.28 256.709 91.0593 256.519 90.8766C256.085 90.5149 255.529 90.3332 254.965 90.3689C254.549 90.3704 254.138 90.4478 253.75 90.5973C253.352 90.7454 252.982 90.9581 252.653 91.2269H251.093V83.9009H259.049V85.9824H253.755V88.7341C254.364 88.4084 255.047 88.2458 255.737 88.2619C256.446 88.2498 257.146 88.4212 257.769 88.7595Z" fill="white"/>
<path d="M85.2598 153.832V147.496L79.8398 139.784H83.4265L86.8539 144.726L90.2813 139.784H93.7286L88.3484 147.516V153.832H85.2598ZM91.585 153.832L98.0412 139.784H100.532L106.988 153.832H103.88L102.565 150.783H96.0087L94.7135 153.832H91.585ZM99.2568 143.072L97.0449 148.372H101.548L99.2966 143.072H99.2568ZM114.388 154.051C113.006 154.051 111.79 153.753 110.741 153.155C109.705 152.544 108.894 151.7 108.31 150.624C107.739 149.535 107.453 148.259 107.453 146.798C107.453 145.337 107.739 144.068 108.31 142.992C108.894 141.903 109.705 141.059 110.741 140.462C111.777 139.864 112.993 139.565 114.388 139.565C115.782 139.565 116.998 139.864 118.034 140.462C119.084 141.059 119.894 141.903 120.465 142.992C121.05 144.068 121.342 145.33 121.342 146.778C121.342 148.24 121.05 149.515 120.465 150.604C119.894 151.693 119.084 152.544 118.034 153.155C116.998 153.753 115.782 154.051 114.388 154.051ZM114.388 151.421C115.557 151.421 116.467 151.016 117.117 150.206C117.782 149.382 118.114 148.246 118.114 146.798C118.114 145.337 117.788 144.208 117.137 143.411C116.486 142.6 115.57 142.195 114.388 142.195C113.232 142.195 112.322 142.6 111.658 143.411C111.007 144.208 110.681 145.337 110.681 146.798C110.681 148.246 111.007 149.382 111.658 150.206C112.322 151.016 113.232 151.421 114.388 151.421ZM129.749 154.051C127.756 154.051 126.235 153.54 125.186 152.517C124.149 151.494 123.631 149.973 123.631 147.954V139.784H126.72V147.974C126.72 149.116 126.979 149.98 127.497 150.564C128.015 151.135 128.766 151.421 129.749 151.421C131.755 151.421 132.758 150.272 132.758 147.974V139.784H135.807V147.954C135.807 149.973 135.295 151.494 134.272 152.517C133.249 153.54 131.741 154.051 129.749 154.051ZM138.54 153.832V139.784H144.956C146.524 139.784 147.732 140.163 148.583 140.92C149.433 141.677 149.858 142.733 149.858 144.088C149.858 145.138 149.586 146.014 149.041 146.718C148.51 147.409 147.746 147.881 146.749 148.133C147.453 148.346 148.031 148.857 148.483 149.668L150.755 153.832H147.347L144.916 149.349C144.717 148.99 144.471 148.744 144.179 148.611C143.887 148.465 143.541 148.392 143.143 148.392H141.628V153.832H138.54ZM141.628 146.161H144.398C146.059 146.161 146.889 145.496 146.889 144.168C146.889 142.853 146.059 142.195 144.398 142.195H141.628V146.161ZM155.373 153.832V142.335H150.73V139.784H163.104V142.335H158.461V153.832H155.373ZM168.547 153.832L175.004 139.784H177.494L183.951 153.832H180.842L179.527 150.783H172.971L171.676 153.832H168.547ZM176.219 143.072L174.007 148.372H178.511L176.259 143.072H176.219ZM191.085 154.051C189.092 154.051 187.571 153.54 186.522 152.517C185.486 151.494 184.968 149.973 184.968 147.954V139.784H188.056V147.974C188.056 149.116 188.315 149.98 188.833 150.564C189.352 151.135 190.102 151.421 191.085 151.421C193.091 151.421 194.094 150.272 194.094 147.974V139.784H197.143V147.954C197.143 149.973 196.631 151.494 195.608 152.517C194.586 153.54 193.078 154.051 191.085 154.051ZM198.026 153.832L203.386 146.718L198.186 139.784H201.772L205.16 144.467L208.527 139.784H212.134L206.913 146.718L212.274 153.832H208.667L205.14 148.99L201.653 153.832H198.026ZM218.927 153.832V139.784H228.412V142.195H222.015V145.622H227.973V148.034H222.015V153.832H218.927ZM230.291 153.832V139.784H236.708C238.275 139.784 239.484 140.163 240.334 140.92C241.184 141.677 241.609 142.733 241.609 144.088C241.609 145.138 241.337 146.014 240.792 146.718C240.261 147.409 239.497 147.881 238.501 148.133C239.205 148.346 239.783 148.857 240.235 149.668L242.506 153.832H239.099L236.668 149.349C236.468 148.99 236.223 148.744 235.93 148.611C235.638 148.465 235.293 148.392 234.894 148.392H233.38V153.832H230.291ZM233.38 146.161H236.15C237.81 146.161 238.64 145.496 238.64 144.168C238.64 142.853 237.81 142.195 236.15 142.195H233.38V146.161ZM242.279 153.832L248.736 139.784H251.226L257.683 153.832H254.574L253.259 150.783H246.703L245.408 153.832H242.279ZM249.951 143.072L247.739 148.372H252.243L249.991 143.072H249.951ZM258.897 153.832V139.784H261.985V153.832H258.897ZM269.814 154.051C268.712 154.051 267.669 153.912 266.686 153.633C265.716 153.354 264.906 152.975 264.255 152.497L265.152 150.066C265.776 150.504 266.487 150.85 267.284 151.102C268.094 151.355 268.938 151.481 269.814 151.481C270.771 151.481 271.455 151.335 271.867 151.043C272.292 150.737 272.504 150.358 272.504 149.907C272.504 149.521 272.358 149.216 272.066 148.99C271.774 148.764 271.262 148.572 270.532 148.412L268.28 147.934C265.769 147.403 264.514 146.101 264.514 144.028C264.514 143.138 264.753 142.361 265.231 141.697C265.709 141.019 266.374 140.495 267.224 140.123C268.087 139.751 269.084 139.565 270.213 139.565C271.183 139.565 272.093 139.704 272.943 139.983C273.793 140.262 274.497 140.654 275.055 141.159L274.158 143.431C273.069 142.567 271.747 142.135 270.193 142.135C269.356 142.135 268.705 142.301 268.24 142.634C267.788 142.952 267.563 143.371 267.563 143.889C267.563 144.274 267.702 144.586 267.981 144.825C268.26 145.065 268.745 145.257 269.436 145.403L271.687 145.882C274.265 146.439 275.553 147.701 275.553 149.668C275.553 150.544 275.314 151.315 274.836 151.979C274.371 152.63 273.707 153.141 272.843 153.513C271.993 153.872 270.983 154.051 269.814 154.051ZM277.558 153.832V139.784H287.183V142.195H280.507V145.483H286.744V147.914H280.507V151.421H287.183V153.832H277.558ZM294.45 154.051C293.347 154.051 292.305 153.912 291.322 153.633C290.352 153.354 289.541 152.975 288.891 152.497L289.787 150.066C290.412 150.504 291.122 150.85 291.919 151.102C292.73 151.355 293.573 151.481 294.45 151.481C295.407 151.481 296.091 151.335 296.502 151.043C296.928 150.737 297.14 150.358 297.14 149.907C297.14 149.521 296.994 149.216 296.702 148.99C296.409 148.764 295.898 148.572 295.167 148.412L292.916 147.934C290.405 147.403 289.15 146.101 289.15 144.028C289.15 143.138 289.389 142.361 289.867 141.697C290.345 141.019 291.009 140.495 291.86 140.123C292.723 139.751 293.719 139.565 294.849 139.565C295.818 139.565 296.728 139.704 297.579 139.983C298.429 140.262 299.133 140.654 299.691 141.159L298.794 143.431C297.705 142.567 296.383 142.135 294.829 142.135C293.992 142.135 293.341 142.301 292.876 142.634C292.424 142.952 292.198 143.371 292.198 143.889C292.198 144.274 292.338 144.586 292.617 144.825C292.896 145.065 293.381 145.257 294.071 145.403L296.323 145.882C298.9 146.439 300.189 147.701 300.189 149.668C300.189 150.544 299.95 151.315 299.472 151.979C299.007 152.63 298.342 153.141 297.479 153.513C296.629 153.872 295.619 154.051 294.45 154.051Z" fill="#034454"/>
<path d="M339.516 199.111V178.656H56.8518V199.111" stroke="#00495D" stroke-width="1.42129" stroke-linecap="round"/>
<path d="M245.296 178.656V199.106" stroke="#00495D" stroke-width="1.42129" stroke-linecap="round" stroke-linejoin="round"/>
<path d="M151.071 178.656V199.106" stroke="#00495D" stroke-width="1.42129" stroke-linecap="round" stroke-linejoin="round"/>
<path d="M198.184 166.177V178.428" stroke="#00495D" stroke-width="1.42129" stroke-linecap="round"/>
<path d="M225.294 295.613V316.068V295.613ZM225.294 295.613H67.8666V316.068" stroke="#00495D" stroke-width="1.42129" stroke-linecap="round" stroke-linejoin="round"/>
<path d="M146.58 295.613V316.068" stroke="#00495D" stroke-width="1.42129" stroke-linecap="round" stroke-linejoin="round"/>
<path d="M146.58 284.043V296.298" stroke="#00495D" stroke-width="1.42129" stroke-linecap="round" stroke-linejoin="round"/>
<path d="M185.467 405.701V426.155V405.701ZM185.467 405.701H106.901V426.155" stroke="#00495D" stroke-width="1.42129" stroke-linecap="round" stroke-linejoin="round"/>
<path d="M146.255 392.993V424.8" stroke="#00495D" stroke-width="1.42129" stroke-linecap="round" stroke-linejoin="round"/>
<path d="M42.4686 205.381H73.7753V233.395H35.1627V205.381H40.4008" stroke="#00495D" stroke-width="1.42129" stroke-miterlimit="10"/>
<path d="M86.4411 223.409H73.7752V233.39H86.4411V223.409Z" fill="white" stroke="#00495D" stroke-width="1.42129" stroke-miterlimit="10"/>
<path d="M86.4361 223.409H73.7752V213.428H78.6627C79.5787 213.427 80.476 213.687 81.2497 214.177C82.0233 214.667 82.6416 215.367 83.032 216.195L86.4361 223.409Z" stroke="#00495D" stroke-width="1.42129" stroke-linejoin="round"/>
<path d="M46.7059 238.361C49.4501 238.361 51.6748 236.138 51.6748 233.395C51.6748 230.653 49.4501 228.43 46.7059 228.43C43.9617 228.43 41.7371 230.653 41.7371 233.395C41.7371 236.138 43.9617 238.361 46.7059 238.361Z" fill="white" stroke="#00495D" stroke-width="1.42129" stroke-miterlimit="10"/>
<path d="M73.7754 238.361C76.5196 238.361 78.7442 236.138 78.7442 233.395C78.7442 230.653 76.5196 228.43 73.7754 228.43C71.0312 228.43 68.8066 230.653 68.8066 233.395C68.8066 236.138 71.0312 238.361 73.7754 238.361Z" fill="white" stroke="#00495D" stroke-width="1.42129" stroke-miterlimit="10"/>
<path d="M233.154 238.361H228.54V226.734" stroke="#00495D" stroke-width="1.42129" stroke-linejoin="round"/>
<path d="M228.54 217.251H245.296V238.361H235.084" stroke="#00495D" stroke-width="1.42129" stroke-linejoin="round"/>
<path d="M239.418 226.735H228.54H222.667L228.54 217.251H245.296L239.418 226.735Z" stroke="#00495D" stroke-width="1.42129" stroke-linejoin="round"/>
<path d="M262.047 217.251H245.296V238.361H262.047V226.735" stroke="#00495D" stroke-width="1.42129" stroke-linejoin="round"/>
<path d="M251.169 226.735H267.92L262.047 217.251H245.296L251.169 226.735Z" stroke="#00495D" stroke-width="1.42129" stroke-linejoin="round"/>
<path d="M158.606 223.232C158.606 221.627 158.804 216.347 158.464 215.048C157.956 213.068 155.802 211.357 155.161 209.356C154.925 208.649 154.843 207.899 154.923 207.158H155.466V204.046H146.672V207.163H147.225C147.3 207.903 147.218 208.65 146.987 209.356C146.347 211.357 144.197 213.073 143.679 215.048C143.339 216.347 143.542 218.221 143.542 219.825V229.664C143.542 231.258 143.258 233.248 143.75 234.37C144.365 235.756 146.123 235.634 148.038 235.634H154.105C156.025 235.634 157.783 235.756 158.398 234.37C158.906 233.248 158.606 231.258 158.606 229.659V227.699" stroke="white" stroke-width="1.42129" stroke-miterlimit="10"/>
<path d="M143.542 219.825H158.606" stroke="white" stroke-width="1.42129" stroke-miterlimit="10"/>
<path d="M104.064 263.54C103.098 263.54 102.267 263.347 101.573 262.96C100.888 262.565 100.361 262.011 99.9915 261.299C99.6224 260.579 99.4379 259.731 99.4379 258.756C99.4379 257.78 99.6224 256.937 99.9915 256.225C100.361 255.513 100.888 254.964 101.573 254.577C102.267 254.182 103.098 253.984 104.064 253.984C104.688 253.984 105.277 254.081 105.83 254.274C106.393 254.468 106.854 254.744 107.214 255.105L106.661 256.449C106.265 256.115 105.861 255.873 105.448 255.724C105.035 255.566 104.591 255.487 104.117 255.487C103.177 255.487 102.461 255.772 101.969 256.344C101.476 256.906 101.23 257.71 101.23 258.756C101.23 259.801 101.476 260.61 101.969 261.181C102.461 261.752 103.177 262.037 104.117 262.037C104.591 262.037 105.035 261.963 105.448 261.813C105.861 261.655 106.265 261.409 106.661 261.075L107.214 262.42C106.854 262.771 106.393 263.048 105.83 263.25C105.277 263.443 104.688 263.54 104.064 263.54ZM112.543 263.54C111.646 263.54 110.86 263.342 110.183 262.947C109.516 262.551 108.997 261.998 108.628 261.286C108.259 260.566 108.075 259.722 108.075 258.756C108.075 257.78 108.259 256.937 108.628 256.225C108.997 255.513 109.516 254.964 110.183 254.577C110.851 254.182 111.638 253.984 112.543 253.984C113.448 253.984 114.234 254.182 114.902 254.577C115.57 254.964 116.088 255.513 116.457 256.225C116.826 256.937 117.011 257.776 117.011 258.742C117.011 259.718 116.826 260.566 116.457 261.286C116.088 261.998 115.57 262.551 114.902 262.947C114.234 263.342 113.448 263.54 112.543 263.54ZM112.543 262.09C113.395 262.09 114.058 261.796 114.533 261.207C115.007 260.618 115.244 259.801 115.244 258.756C115.244 257.701 115.007 256.884 114.533 256.304C114.067 255.724 113.404 255.434 112.543 255.434C111.69 255.434 111.027 255.724 110.552 256.304C110.078 256.884 109.841 257.701 109.841 258.756C109.841 259.801 110.078 260.618 110.552 261.207C111.027 261.796 111.69 262.09 112.543 262.09ZM118.752 263.408V254.116H120.163L123.458 260.192L126.74 254.116H128.124V263.408H126.595V257.148L123.932 261.998H122.944L120.281 257.174V263.408H118.752ZM130.169 263.408V254.116H134.202C135.221 254.116 136.007 254.371 136.561 254.881C137.115 255.39 137.391 256.102 137.391 257.016C137.391 257.93 137.115 258.646 136.561 259.164C136.007 259.674 135.221 259.929 134.202 259.929H131.856V263.408H130.169ZM131.856 258.597H133.938C135.151 258.597 135.757 258.07 135.757 257.016C135.757 255.97 135.151 255.447 133.938 255.447H131.856V258.597ZM142.867 263.54C141.971 263.54 141.184 263.342 140.508 262.947C139.84 262.551 139.322 261.998 138.953 261.286C138.584 260.566 138.399 259.722 138.399 258.756C138.399 257.78 138.584 256.937 138.953 256.225C139.322 255.513 139.84 254.964 140.508 254.577C141.176 254.182 141.962 253.984 142.867 253.984C143.772 253.984 144.559 254.182 145.226 254.577C145.894 254.964 146.413 255.513 146.782 256.225C147.151 256.937 147.335 257.776 147.335 258.742C147.335 259.718 147.151 260.566 146.782 261.286C146.413 261.998 145.894 262.551 145.226 262.947C144.559 263.342 143.772 263.54 142.867 263.54ZM142.867 262.09C143.719 262.09 144.383 261.796 144.857 261.207C145.332 260.618 145.569 259.801 145.569 258.756C145.569 257.701 145.332 256.884 144.857 256.304C144.392 255.724 143.728 255.434 142.867 255.434C142.015 255.434 141.351 255.724 140.877 256.304C140.402 256.884 140.165 257.701 140.165 258.756C140.165 259.801 140.402 260.618 140.877 261.207C141.351 261.796 142.015 262.09 142.867 262.09ZM152.253 263.54C151.524 263.54 150.848 263.448 150.224 263.263C149.6 263.07 149.073 262.811 148.642 262.485L149.156 261.154C149.587 261.462 150.057 261.699 150.566 261.866C151.085 262.033 151.647 262.116 152.253 262.116C152.948 262.116 153.453 262.002 153.769 261.774C154.085 261.537 154.244 261.233 154.244 260.864C154.244 260.557 154.129 260.315 153.901 260.139C153.681 259.964 153.299 259.819 152.754 259.704L151.304 259.401C149.653 259.05 148.827 258.202 148.827 256.858C148.827 256.278 148.98 255.772 149.288 255.342C149.595 254.911 150.022 254.577 150.566 254.34C151.111 254.103 151.739 253.984 152.451 253.984C153.084 253.984 153.677 254.081 154.23 254.274C154.784 254.459 155.245 254.722 155.614 255.065L155.1 256.33C154.371 255.715 153.484 255.408 152.438 255.408C151.832 255.408 151.357 255.535 151.014 255.79C150.672 256.045 150.5 256.379 150.5 256.792C150.5 257.108 150.606 257.363 150.817 257.556C151.028 257.741 151.388 257.886 151.898 257.991L153.334 258.294C154.204 258.479 154.85 258.769 155.272 259.164C155.702 259.559 155.917 260.087 155.917 260.746C155.917 261.299 155.768 261.787 155.469 262.209C155.171 262.63 154.744 262.96 154.191 263.197C153.646 263.426 153 263.54 152.253 263.54ZM157.365 263.408V254.116H159.053V263.408H157.365ZM163.313 263.408V255.526H160.123V254.116H168.19V255.526H165V263.408H163.313ZM169.258 263.408V254.116H170.945V263.408H169.258ZM177.13 263.54C176.234 263.54 175.448 263.342 174.771 262.947C174.103 262.551 173.585 261.998 173.216 261.286C172.847 260.566 172.662 259.722 172.662 258.756C172.662 257.78 172.847 256.937 173.216 256.225C173.585 255.513 174.103 254.964 174.771 254.577C175.439 254.182 176.225 253.984 177.13 253.984C178.035 253.984 178.822 254.182 179.49 254.577C180.157 254.964 180.676 255.513 181.045 256.225C181.414 256.937 181.598 257.776 181.598 258.742C181.598 259.718 181.414 260.566 181.045 261.286C180.676 261.998 180.157 262.551 179.49 262.947C178.822 263.342 178.035 263.54 177.13 263.54ZM177.13 262.09C177.983 262.09 178.646 261.796 179.12 261.207C179.595 260.618 179.832 259.801 179.832 258.756C179.832 257.701 179.595 256.884 179.12 256.304C178.655 255.724 177.991 255.434 177.13 255.434C176.278 255.434 175.615 255.724 175.14 256.304C174.666 256.884 174.428 257.701 174.428 258.756C174.428 259.801 174.666 260.618 175.14 261.207C175.615 261.796 176.278 262.09 177.13 262.09ZM183.314 263.408V254.116H184.579L189.574 260.601V254.116H191.143V263.408H189.891L184.882 256.897V263.408H183.314Z" fill="#0B4453"/>
<path d="M91.4812 323.404H44.2571V342.001H91.4812V323.404Z" fill="#F5F5F5"/>
<path d="M178.869 323.373H116.694C115.59 323.373 114.694 324.269 114.694 325.373V371.315C114.694 372.419 115.59 373.315 116.694 373.315H178.869C179.974 373.315 180.869 372.419 180.869 371.315V325.373C180.869 324.269 179.974 323.373 178.869 323.373Z" fill="#00495D"/>
<path d="M248.903 323.404H201.679V342.001H248.903V323.404Z" fill="#F5F5F5"/>
<path d="M165.759 351.515H129.799V365.674H165.759V351.515Z" fill="white"/>
<path d="M135.349 361.288C134.71 361.288 134.214 361.151 133.86 360.877C133.505 360.598 133.328 360.209 133.328 359.71C133.328 359.361 133.422 359.064 133.61 358.817C133.803 358.57 134.058 358.401 134.375 358.31C134.09 358.202 133.868 358.031 133.707 357.795C133.546 357.558 133.465 357.287 133.465 356.982C133.465 356.504 133.634 356.134 133.972 355.871C134.316 355.602 134.774 355.468 135.349 355.468C135.923 355.468 136.382 355.602 136.725 355.871C137.068 356.134 137.24 356.504 137.24 356.982C137.24 357.287 137.157 357.561 136.991 357.803C136.83 358.039 136.61 358.208 136.331 358.31C136.647 358.401 136.899 358.57 137.087 358.817C137.275 359.064 137.369 359.361 137.369 359.71C137.369 360.209 137.192 360.598 136.838 360.877C136.484 361.151 135.987 361.288 135.349 361.288ZM135.349 358.068C135.74 358.068 136.046 357.977 136.266 357.795C136.492 357.607 136.604 357.354 136.604 357.038C136.604 356.716 136.492 356.466 136.266 356.289C136.046 356.107 135.74 356.016 135.349 356.016C134.957 356.016 134.651 356.107 134.431 356.289C134.211 356.466 134.101 356.716 134.101 357.038C134.101 357.354 134.211 357.607 134.431 357.795C134.651 357.977 134.957 358.068 135.349 358.068ZM135.349 360.741C136.272 360.741 136.733 360.384 136.733 359.67C136.733 358.967 136.272 358.616 135.349 358.616C134.426 358.616 133.964 358.967 133.964 359.67C133.964 360.384 134.426 360.741 135.349 360.741ZM140.296 361.288C139.931 361.288 139.582 361.229 139.249 361.111C138.917 360.993 138.635 360.826 138.404 360.612L138.654 360.089C139.153 360.496 139.697 360.7 140.288 360.7C140.679 360.7 140.988 360.59 141.213 360.37C141.439 360.15 141.551 359.86 141.551 359.501C141.551 359.131 141.444 358.828 141.229 358.591C141.015 358.355 140.72 358.237 140.344 358.237C139.802 358.237 139.375 358.463 139.064 358.913H138.581V355.541H141.873V356.104H139.233V358.133C139.544 357.821 139.955 357.666 140.465 357.666C140.819 357.666 141.128 357.741 141.39 357.891C141.653 358.041 141.855 358.253 141.994 358.527C142.139 358.795 142.211 359.109 142.211 359.469C142.211 359.823 142.134 360.137 141.978 360.411C141.822 360.684 141.6 360.899 141.31 361.054C141.026 361.21 140.687 361.288 140.296 361.288ZM143.585 361.215V360.652H144.881V356.338L143.858 356.982L143.577 356.491L145.066 355.541H145.541V360.652H146.756V361.215H143.585ZM150.197 361.215V355.541H150.752L152.934 359.638L155.099 355.541H155.654V361.215H155.042V356.78L153.151 360.338H152.716L150.8 356.788V361.215H150.197ZM157.067 361.215V355.541H157.727V360.636H160.616V361.215H157.067Z" fill="#0B4453"/>
<path d="M165.978 432.268H126.39V457.277H165.978V432.268Z" fill="#F5F5F5"/>
<path d="M139.147 438.441H151.168V449.194H136.338V438.441H138.35" fill="#A5A5A5"/>
<path d="M156.03 445.361H151.168V449.194H156.03V445.361Z" fill="#A5A5A5"/>
<path d="M156.03 445.361H151.168V441.528H153.043C153.394 441.528 153.738 441.628 154.035 441.816C154.332 442.004 154.569 442.272 154.719 442.589L156.03 445.361Z" fill="#A5A5A5"/>
<path d="M140.773 451.103C141.828 451.103 142.684 450.249 142.684 449.194C142.684 448.14 141.828 447.285 140.773 447.285C139.718 447.285 138.863 448.14 138.863 449.194C138.863 450.249 139.718 451.103 140.773 451.103Z" fill="#A5A5A5"/>
<path d="M142.149 335V330.065H143.234V334.083H145.516V335H142.149ZM145.513 335L147.781 330.065H148.656L150.924 335H149.832L149.37 333.929H147.067L146.612 335H145.513ZM148.208 331.22L147.431 333.082H149.013L148.222 331.22H148.208ZM151.351 335V330.065H152.436V335H151.351ZM154.598 335V330.961H152.967V330.065H157.314V330.961H155.683V335H154.598ZM125.275 345V340.065H127.207C128.047 340.065 128.698 340.28 129.16 340.709C129.622 341.134 129.853 341.74 129.853 342.529C129.853 343.318 129.622 343.927 129.16 344.356C128.698 344.785 128.047 345 127.207 345H125.275ZM126.36 344.111H127.144C128.194 344.111 128.719 343.584 128.719 342.529C128.719 341.479 128.194 340.954 127.144 340.954H126.36V344.111ZM130.696 345V340.065H134.077V340.912H131.732V342.067H133.923V342.921H131.732V344.153H134.077V345H130.696ZM134.948 345V340.065H135.851L137.517 343.096L139.176 340.065H140.065V345H139.078V341.99L137.804 344.258H137.195L135.928 342.011V345H134.948ZM141.066 345V340.065H142.151V345H141.066ZM143.095 343.537V342.704H145.258V343.537H143.095ZM146.22 345V340.065H149.601V340.912H147.256V342.067H149.447V342.921H147.256V344.153H149.601V345H146.22ZM147.676 339.645L148.502 338.42H149.573L148.411 339.645H147.676ZM152.852 345.077C152.32 345.077 151.865 344.972 151.487 344.762C151.109 344.552 150.818 344.258 150.612 343.88C150.412 343.497 150.311 343.047 150.311 342.529C150.311 342.016 150.412 341.57 150.612 341.192C150.818 340.809 151.109 340.513 151.487 340.303C151.865 340.093 152.32 339.988 152.852 339.988C153.179 339.988 153.492 340.039 153.79 340.142C154.089 340.245 154.334 340.385 154.525 340.562L154.189 341.423C153.979 341.26 153.767 341.141 153.552 341.066C153.342 340.987 153.121 340.947 152.887 340.947C152.416 340.947 152.059 341.085 151.816 341.36C151.578 341.631 151.459 342.02 151.459 342.529C151.459 343.038 151.578 343.43 151.816 343.705C152.059 343.98 152.416 344.118 152.887 344.118C153.121 344.118 153.342 344.081 153.552 344.006C153.767 343.927 153.979 343.805 154.189 343.642L154.525 344.503C154.334 344.676 154.089 344.816 153.79 344.923C153.492 345.026 153.179 345.077 152.852 345.077ZM155.237 345V340.065H157.491C158.041 340.065 158.466 340.198 158.765 340.464C159.063 340.73 159.213 341.101 159.213 341.577C159.213 341.946 159.117 342.254 158.926 342.501C158.739 342.744 158.471 342.909 158.121 342.998C158.368 343.073 158.571 343.252 158.73 343.537L159.528 345H158.331L157.477 343.425C157.407 343.299 157.32 343.213 157.218 343.166C157.115 343.115 156.994 343.089 156.854 343.089H156.322V345H155.237ZM156.322 342.305H157.295C157.878 342.305 158.17 342.072 158.17 341.605C158.17 341.143 157.878 340.912 157.295 340.912H156.322V342.305ZM160.111 345V340.065H163.492V340.912H161.147V342.067H163.338V342.921H161.147V344.153H163.492V345H160.111ZM161.567 339.645L162.393 338.42H163.464L162.302 339.645H161.567ZM164.363 345V340.065H165.266L166.932 343.096L168.591 340.065H169.48V345H168.493V341.99L167.219 344.258H166.61L165.343 342.011V345H164.363ZM170.481 345V340.065H173.862V340.912H171.517V342.067H173.708V342.921H171.517V344.153H173.862V345H170.481ZM171.937 339.645L172.763 338.42H173.834L172.672 339.645H171.937Z" fill="white"/>
<path d="M151.168 451.103C152.223 451.103 153.078 450.249 153.078 449.194C153.078 448.14 152.223 447.285 151.168 447.285C150.113 447.285 149.258 448.14 149.258 449.194C149.258 450.249 150.113 451.103 151.168 451.103Z" fill="#A5A5A5"/>
<path d="M225.055 432.268H185.467V457.277H225.055V432.268Z" fill="#F5F5F5"/>
<path fill-rule="evenodd" clip-rule="evenodd" d="M206.12 442.549H210.205L202.274 451.611L203.706 445.255H200.323L203.325 437.929H209.783L206.12 442.549Z" fill="#A5A5A5"/>
<path d="M104.896 432.268H33.9518C32.8472 432.268 31.9518 433.163 31.9518 434.268V472.858C31.9518 473.963 32.8472 474.858 33.9518 474.858H104.896C106 474.858 106.896 473.963 106.896 472.858V434.268C106.896 433.163 106 432.268 104.896 432.268Z" fill="#00495D"/>
<path d="M41.3614 446L43.9534 440.36H44.9534L47.5454 446H46.2974L45.7694 444.776H43.1374L42.6174 446H41.3614ZM44.4414 441.68L43.5534 443.808H45.3614L44.4574 441.68H44.4414ZM50.692 446.088C50.0574 446.088 49.5187 445.968 49.076 445.728C48.6387 445.488 48.3054 445.152 48.076 444.72C47.8467 444.288 47.732 443.781 47.732 443.2C47.732 442.603 47.8494 442.085 48.084 441.648C48.324 441.211 48.668 440.872 49.116 440.632C49.564 440.392 50.1027 440.272 50.732 440.272C51.1267 440.272 51.5 440.328 51.852 440.44C52.2094 440.552 52.5 440.701 52.724 440.888L52.324 441.856C52.0787 441.675 51.828 441.547 51.572 441.472C51.316 441.392 51.0387 441.352 50.74 441.352C50.1694 441.352 49.74 441.512 49.452 441.832C49.1694 442.147 49.028 442.603 49.028 443.2C49.028 443.803 49.172 444.259 49.46 444.568C49.7534 444.877 50.1854 445.032 50.756 445.032C51.06 445.032 51.38 444.984 51.716 444.888V443.784H50.5V442.888H52.74V445.656C52.4627 445.795 52.1427 445.901 51.78 445.976C51.4174 446.051 51.0547 446.088 50.692 446.088ZM53.8375 446V440.36H56.4135C57.0429 440.36 57.5282 440.512 57.8695 440.816C58.2109 441.12 58.3815 441.544 58.3815 442.088C58.3815 442.509 58.2722 442.861 58.0535 443.144C57.8402 443.421 57.5335 443.611 57.1335 443.712C57.4162 443.797 57.6482 444.003 57.8295 444.328L58.7415 446H57.3735L56.3975 444.2C56.3175 444.056 56.2189 443.957 56.1015 443.904C55.9842 443.845 55.8455 443.816 55.6855 443.816H55.0775V446H53.8375ZM55.0775 442.92H56.1895C56.8562 442.92 57.1895 442.653 57.1895 442.12C57.1895 441.592 56.8562 441.328 56.1895 441.328H55.0775V442.92ZM59.4078 446V440.36H60.6478V446H59.4078ZM64.511 446.088C63.903 446.088 63.383 445.968 62.951 445.728C62.519 445.488 62.1857 445.152 61.951 444.72C61.7217 444.283 61.607 443.768 61.607 443.176C61.607 442.589 61.7217 442.08 61.951 441.648C62.1857 441.211 62.519 440.872 62.951 440.632C63.383 440.392 63.903 440.272 64.511 440.272C64.8844 440.272 65.2417 440.331 65.583 440.448C65.9244 440.565 66.2044 440.725 66.423 440.928L66.039 441.912C65.799 441.725 65.5564 441.589 65.311 441.504C65.071 441.413 64.8177 441.368 64.551 441.368C64.0124 441.368 63.6044 441.525 63.327 441.84C63.055 442.149 62.919 442.595 62.919 443.176C62.919 443.757 63.055 444.205 63.327 444.52C63.6044 444.835 64.0124 444.992 64.551 444.992C64.8177 444.992 65.071 444.949 65.311 444.864C65.5564 444.773 65.799 444.635 66.039 444.448L66.423 445.432C66.2044 445.629 65.9244 445.789 65.583 445.912C65.2417 446.029 64.8844 446.088 64.511 446.088ZM69.652 446.088C68.852 446.088 68.2413 445.883 67.82 445.472C67.404 445.061 67.196 444.451 67.196 443.64V440.36H68.436V443.648C68.436 444.107 68.54 444.453 68.748 444.688C68.956 444.917 69.2573 445.032 69.652 445.032C70.4573 445.032 70.86 444.571 70.86 443.648V440.36H72.084V443.64C72.084 444.451 71.8786 445.061 71.468 445.472C71.0573 445.883 70.452 446.088 69.652 446.088ZM73.1813 446V440.36H74.4213V444.952H77.0293V446H73.1813ZM78.0565 446V441.384H76.1925V440.36H81.1605V441.384H79.2965V446H78.0565ZM84.1832 446.088C83.3832 446.088 82.7726 445.883 82.3512 445.472C81.9352 445.061 81.7272 444.451 81.7272 443.64V440.36H82.9672V443.648C82.9672 444.107 83.0712 444.453 83.2792 444.688C83.4872 444.917 83.7886 445.032 84.1832 445.032C84.9886 445.032 85.3912 444.571 85.3912 443.648V440.36H86.6152V443.64C86.6152 444.451 86.4099 445.061 85.9992 445.472C85.5886 445.883 84.9832 446.088 84.1832 446.088ZM87.7125 446V440.36H90.2885C90.9179 440.36 91.4032 440.512 91.7445 440.816C92.0859 441.12 92.2565 441.544 92.2565 442.088C92.2565 442.509 92.1472 442.861 91.9285 443.144C91.7152 443.421 91.4085 443.611 91.0085 443.712C91.2912 443.797 91.5232 444.003 91.7045 444.328L92.6165 446H91.2485L90.2725 444.2C90.1925 444.056 90.0939 443.957 89.9765 443.904C89.8592 443.845 89.7205 443.816 89.5605 443.816H88.9525V446H87.7125ZM88.9525 442.92H90.0645C90.7312 442.92 91.0645 442.653 91.0645 442.12C91.0645 441.592 90.7312 441.328 90.0645 441.328H88.9525V442.92ZM93.2828 446V440.36H97.1468V441.328H94.4668V442.648H96.9708V443.624H94.4668V445.032H97.1468V446H93.2828Z" fill="white"/>
<path d="M87.4065 452.053H51.446V466.212H87.4065V452.053Z" fill="white"/>
<path d="M61.0339 462.291V456.616H62.0642V461.414H64.7848V462.291H61.0339ZM64.8241 462.291L67.3918 456.616H68.2369L70.8047 462.291H69.7583L69.1948 460.979H66.4259L65.8705 462.291H64.8241ZM67.8023 457.735L66.78 460.158H68.8406L67.8184 457.735H67.8023ZM71.4256 462.291V456.616H72.4559V462.291H71.4256ZM75.0578 462.291V457.478H73.1099V456.616H78.036V457.478H76.0881V462.291H75.0578Z" fill="#0B4453"/>
</svg>
